<svg width="450" height="164" viewBox="0 0 450 164" fill="none" xmlns="http://www.w3.org/2000/svg">
<path d="M58.188 67.353C62.075 67.055 65.706 66.194 69.067 64.769C72.434 63.344 75.202 61.277 77.369 58.579C79.534 55.872 80.62 52.269 80.62 47.767C80.62 41.012 78.384 35.837 73.903 32.228C69.428 28.625 64.278 26.824 58.462 26.824C50.399 26.824 44.312 29.483 40.213 34.795C36.102 40.107 34.128 46.811 34.278 54.886H3.90402C4.20602 46.811 5.66602 39.437 8.27802 32.784C10.896 26.137 14.565 20.431 19.285 15.668C23.996 10.906 29.65 7.23104 36.233 4.62104C42.816 2.01504 50.154 0.712036 58.236 0.712036C64.52 0.712036 70.807 1.65104 77.092 3.52104C83.382 5.39404 89.027 8.20304 94.046 11.946C99.062 15.689 103.139 20.251 106.28 25.647C109.421 31.037 111 37.248 111 44.28C111 51.919 109.17 58.657 105.521 64.497C101.871 70.338 96.401 74.302 89.108 76.396V76.848C97.754 78.795 104.533 82.988 109.459 89.428C114.379 95.87 116.836 103.581 116.836 112.561C116.836 120.8 115.227 128.138 112.006 134.58C108.782 141.024 104.48 146.408 99.088 150.757C93.7 155.095 87.481 158.393 80.438 160.634C73.398 162.872 66.058 164 58.427 164C49.587 164 41.542 162.725 34.271 160.183C27.008 157.625 20.826 153.916 15.735 149.034C10.64 144.158 6.71302 138.204 3.94302 131.162C1.16702 124.123 -0.140984 116.044 0.0120159 106.917H30.385C30.531 111.109 31.206 115.11 32.412 118.924C33.612 122.74 35.341 126.035 37.592 128.801C39.843 131.568 42.652 133.782 46.032 135.428C49.408 137.068 53.423 137.889 58.072 137.889C65.275 137.889 71.357 135.691 76.307 131.288C81.262 126.883 83.737 120.875 83.737 113.26C83.737 107.282 82.543 102.726 80.161 99.592C77.772 96.453 74.79 94.182 71.198 92.756C67.607 91.34 63.678 90.519 59.418 90.297C55.155 90.071 51.08 89.955 47.199 89.955V67.353C50.635 67.652 54.298 67.652 58.188 67.353" fill="#CBCBCB"/>
<path d="M209.286 21.0907C227.049 21.0907 244.642 28.2817 257.551 40.8237L260.996 44.1667V17.1887L260.133 16.5827C245.37 6.22174 229.091 1.18774 210.364 1.18774C162.436 1.18774 123.444 37.9017 123.444 83.0287C123.444 127.487 162.436 163.655 210.364 163.655C227.855 163.655 245.517 158.193 260.11 148.281L260.996 147.674V120.78L257.575 123.995C244.221 136.551 226.774 143.752 209.719 143.752C174.99 143.752 145.649 115.666 145.649 82.4197C145.649 49.1767 174.789 21.0907 209.286 21.0907" fill="#CBCBCB"/>
<path d="M261.273 51.6357V114.339L288.685 81.6817L261.273 51.6357V51.6357Z" fill="#CBCBCB"/>
<path d="M427.259 162.581L362.763 83.7525L427.247 5.13147H393.04L345.742 62.9405L298.447 5.13147H264.244L328.729 83.7525L264.229 162.581H298.099L345.742 104.503L393.393 162.581H427.259V162.581Z" fill="#CBCBCB"/>
<path d="M440.106 152.654C441.303 152.654 443.405 152.88 443.405 151.342C443.405 150.348 442.094 150.168 441.055 150.168H438.48V152.654H440.106V152.654ZM444.625 158.466H442.999L440.106 154.01H438.48V158.466H437.124V148.811H441.327C443.066 148.811 444.759 149.285 444.759 151.365C444.759 153.263 443.426 153.967 441.71 154.01L444.625 158.466V158.466ZM447.923 153.694C447.923 149.534 444.466 146.232 440.421 146.232C436.378 146.232 432.921 149.534 432.921 153.694C432.921 157.854 436.378 161.156 440.421 161.156C444.466 161.156 447.923 157.854 447.923 153.694ZM431.566 153.694C431.566 148.789 435.475 144.876 440.421 144.876C445.371 144.876 449.278 148.789 449.278 153.694C449.278 158.599 445.371 162.512 440.421 162.512C435.475 162.512 431.566 158.599 431.566 153.694Z" fill="#CBCBCB"/>
</svg>
