<svg width="331" height="331" viewBox="0 0 331 331" fill="none" xmlns="http://www.w3.org/2000/svg">
<g clip-path="url(#clip0)">
<path d="M148.26 186.188C142.551 186.188 137.917 190.821 137.917 196.531V234.458H113.781C111.878 234.458 110.333 232.914 110.333 231.01V196.531C110.333 190.821 105.699 186.188 99.9896 186.188C94.2798 186.188 89.6458 190.821 89.6458 196.531V231.01C89.6458 244.319 100.472 255.146 113.781 255.146H137.917V286.177C137.917 291.887 142.551 296.521 148.26 296.521C153.97 296.521 158.604 291.887 158.604 286.177V196.531C158.604 190.808 153.97 186.188 148.26 186.188Z" fill="#E97D2E"/>
<path d="M196.531 206.875H231.01C236.72 206.875 241.354 202.241 241.354 196.531C241.354 190.821 236.72 186.188 231.01 186.188H196.531C183.222 186.188 172.396 197.014 172.396 210.323V272.385C172.396 285.694 183.222 296.521 196.531 296.521H231.01C236.72 296.521 241.354 291.887 241.354 286.177V244.802C241.354 239.092 236.72 234.458 231.01 234.458H210.323C204.613 234.458 199.979 239.092 199.979 244.802C199.979 250.512 204.613 255.146 210.323 255.146H220.667V275.833H196.531C194.628 275.833 193.083 274.289 193.083 272.385V210.323C193.083 208.42 194.628 206.875 196.531 206.875Z" fill="#E97D2E"/>
<path d="M306.865 175.844H299.969V168.948C299.969 163.238 295.335 158.604 289.625 158.604C283.915 158.604 279.281 163.238 279.281 168.948V175.844H272.385C266.676 175.844 262.042 180.478 262.042 186.187C262.042 191.897 266.676 196.531 272.385 196.531H279.281V203.427C279.281 209.137 283.915 213.771 289.625 213.771C295.335 213.771 299.969 209.137 299.969 203.427V196.531H306.865C312.574 196.531 317.208 191.897 317.208 186.187C317.208 180.478 312.574 175.844 306.865 175.844Z" fill="#E97D2E"/>
<path d="M276.865 131.844H269.969V124.948C269.969 119.238 265.335 114.604 259.625 114.604C253.915 114.604 249.281 119.238 249.281 124.948V131.844H242.385C236.676 131.844 232.042 136.478 232.042 142.187C232.042 147.897 236.676 152.531 242.385 152.531H249.281V159.427C249.281 165.137 253.915 169.771 259.625 169.771C265.335 169.771 269.969 165.137 269.969 159.427V152.531H276.865C282.574 152.531 287.208 147.897 287.208 142.187C287.208 136.478 282.574 131.844 276.865 131.844Z" fill="#E97D2E"/>
<path d="M272.385 71.5374C268.882 71.5374 265.365 70.1996 262.676 67.5378C236.706 41.775 202.186 27.5833 165.5 27.5833C128.814 27.5833 94.2936 41.775 68.3239 67.524C62.9176 72.9028 54.1874 72.8614 48.8225 67.455C43.4575 62.0487 43.4989 53.3048 48.9052 47.9536C80.0744 17.0327 121.491 0 165.5 0C209.509 0 250.926 17.0327 282.095 47.9536C287.501 53.3186 287.542 62.0487 282.178 67.455C279.488 70.172 275.93 71.5374 272.385 71.5374V71.5374Z" fill="#E97D2E"/>
<path d="M235.176 108.43C231.659 108.43 228.156 107.092 225.466 104.431C209.413 88.5012 188.118 79.7435 165.5 79.7435C142.882 79.7435 121.587 88.5012 105.534 104.431C100.128 109.796 91.3974 109.768 86.0324 104.348C80.6675 98.9415 80.7088 90.2252 86.1152 84.8464C107.354 63.7727 135.558 52.1602 165.5 52.1602C195.442 52.1602 223.646 63.7727 244.885 84.8602C250.291 90.2252 250.333 98.9553 244.968 104.362C242.278 107.079 238.734 108.43 235.176 108.43Z" fill="#E97D2E"/>
<path d="M197.966 145.337C194.421 145.337 190.877 143.971 188.187 141.268C176.202 129.2 154.798 129.2 142.813 141.268C137.448 146.661 128.718 146.702 123.311 141.337C117.905 135.958 117.877 127.228 123.242 121.822C134.441 110.54 149.446 104.32 165.5 104.32C181.553 104.32 196.559 110.54 207.758 121.822C213.123 127.228 213.095 135.958 207.689 141.323C204.999 143.999 201.482 145.337 197.966 145.337V145.337Z" fill="#E97D2E"/>
</g>
<defs>
<clipPath id="clip0">
<rect width="331" height="331" fill="white"/>
</clipPath>
</defs>
</svg>
