<svg width="296" height="296" viewBox="0 0 296 296" fill="none" xmlns="http://www.w3.org/2000/svg">
<g clip-path="url(#clip0)">
<path d="M132.583 185C137.689 185 141.833 180.856 141.833 175.75C141.833 170.644 137.689 166.5 132.583 166.5H89.4167C84.3107 166.5 80.1667 170.644 80.1667 175.75V215.833C80.1667 220.939 84.3107 225.083 89.4167 225.083H112.542C118.486 225.083 123.333 229.93 123.333 235.875C123.333 241.82 118.486 246.667 112.542 246.667H89.4167C84.3107 246.667 80.1667 250.811 80.1667 255.917C80.1667 261.023 84.3107 265.167 89.4167 265.167H112.542C128.698 265.167 141.833 252.032 141.833 235.875C141.833 219.718 128.698 206.583 112.542 206.583H98.6667V185H132.583Z" fill="#E97D2E"/>
<path d="M175.75 185H206.583C211.689 185 215.833 180.856 215.833 175.75C215.833 170.644 211.689 166.5 206.583 166.5H175.75C163.848 166.5 154.167 176.182 154.167 188.083V243.583C154.167 255.485 163.848 265.167 175.75 265.167H206.583C211.689 265.167 215.833 261.023 215.833 255.917V218.917C215.833 213.811 211.689 209.667 206.583 209.667H188.083C182.977 209.667 178.833 213.811 178.833 218.917C178.833 224.023 182.977 228.167 188.083 228.167H197.333V246.667H175.75C174.048 246.667 172.667 245.285 172.667 243.583V188.083C172.667 186.381 174.048 185 175.75 185Z" fill="#E97D2E"/>
<path d="M243.583 63.973C240.451 63.973 237.306 62.7767 234.901 60.3963C211.677 37.3577 180.807 24.6667 148 24.6667C115.193 24.6667 84.323 37.3577 61.0993 60.384C56.277 65.194 48.4576 65.157 43.66 60.3223C38.8623 55.4877 38.8993 47.6683 43.734 42.883C71.6073 15.2317 108.644 0 148 0C187.356 0 224.393 15.2317 252.266 42.883C257.101 47.6807 257.138 55.4877 252.34 60.3223C249.935 62.752 246.753 63.973 243.583 63.973Z" fill="#E97D2E"/>
<path d="M210.308 96.9646C207.163 96.9646 204.03 95.7683 201.625 93.388C187.269 79.143 168.227 71.3113 148 71.3113C127.773 71.3113 108.731 79.143 94.3747 93.388C89.54 98.1856 81.733 98.161 76.9354 93.314C72.1377 88.4793 72.1747 80.6847 77.0094 75.8747C96.0027 57.0293 121.224 46.6447 148 46.6447C174.776 46.6447 199.997 57.0293 218.991 75.887C223.825 80.6847 223.862 88.4916 219.065 93.3263C216.66 95.756 213.49 96.9646 210.308 96.9646Z" fill="#E97D2E"/>
<path d="M177.033 129.969C173.863 129.969 170.693 128.748 168.288 126.33C157.571 115.539 138.429 115.539 127.712 126.33C122.914 131.153 115.107 131.19 110.272 126.392C105.438 121.582 105.413 113.775 110.211 108.94C120.225 98.8516 133.644 93.2893 148 93.2893C162.356 93.2893 175.775 98.8516 185.789 108.94C190.587 113.775 190.562 121.582 185.728 126.38C183.323 128.772 180.178 129.969 177.033 129.969Z" fill="#E97D2E"/>
</g>
<defs>
<clipPath id="clip0">
<rect width="296" height="296" fill="white"/>
</clipPath>
</defs>
</svg>
