<svg width="118" height="140" viewBox="0 0 118 140" fill="none" xmlns="http://www.w3.org/2000/svg">
<g clip-path="url(#clip0)">
<path d="M115.527 109.103C113.408 113.994 110.901 118.497 107.995 122.636C104.035 128.279 100.792 132.185 98.293 134.354C94.4191 137.914 90.2684 139.738 85.8237 139.842C82.6329 139.842 78.7849 138.934 74.3056 137.093C69.8116 135.261 65.6817 134.354 61.9055 134.354C57.9451 134.354 53.6975 135.261 49.1543 137.093C44.6041 138.934 40.9386 139.893 38.136 139.988C33.8738 140.17 29.6254 138.295 25.3848 134.354C22.6782 131.995 19.2928 127.951 15.2373 122.221C10.886 116.103 7.30863 109.008 4.50607 100.919C1.50462 92.1825 0 83.7223 0 75.5317C0 66.1493 2.02864 58.0573 6.09197 51.2761C9.28539 45.8292 13.5338 41.5326 18.8509 38.3783C24.1681 35.2241 29.9133 33.6168 36.1004 33.5139C39.4858 33.5139 43.9253 34.5604 49.4422 36.6172C54.9436 38.6808 58.476 39.7273 60.0247 39.7273C61.1826 39.7273 65.1067 38.5036 71.759 36.0641C78.0499 33.8017 83.3592 32.8649 87.7088 33.2339C99.495 34.1845 108.35 38.8277 114.238 47.1929C103.698 53.5757 98.4832 62.5155 98.587 73.9839C98.6821 82.9169 101.925 90.3505 108.298 96.2527C111.186 98.9922 114.411 101.109 118 102.613C117.222 104.869 116.4 107.029 115.527 109.103V109.103ZM88.4957 2.80128C88.4957 9.80288 85.9361 16.3403 80.8343 22.3912C74.6774 29.5845 67.2304 33.7412 59.1548 33.0853C59.0519 32.2453 58.9922 31.3613 58.9922 30.4323C58.9922 23.7108 61.9202 16.5174 67.1198 10.6359C69.7157 7.65793 73.0172 5.18182 77.0208 3.20658C81.0159 1.26081 84.7947 0.184757 88.3487 0.000488281C88.4525 0.936492 88.4957 1.87256 88.4957 2.80119V2.80128Z" fill="#CBCBCB"/>
</g>
<defs>
<clipPath id="clip0">
<rect width="118" height="140" fill="white"/>
</clipPath>
</defs>
</svg>
