<svg width="608" height="196" viewBox="0 0 608 196" fill="none" xmlns="http://www.w3.org/2000/svg">
<path d="M353.901 73.542C354.177 73.6128 354.466 73.6503 354.765 73.6496C356.697 73.6496 358.265 72.0779 358.265 70.1383C358.267 70.0946 358.263 70.0516 358.263 70.0079C358.263 68.8788 357.551 67.2113 356.176 66.3578C352.788 64.0109 347.617 63.131 343.117 63.131C338.61 63.131 333.845 64.2705 330.885 66.5167C327.889 68.7921 326.371 72.0008 326.371 76.052C326.371 83.4777 331.86 88.8751 342.687 91.111C347.47 92.1137 352.684 94.5758 352.684 98.8372C352.684 100.988 351.659 103.327 349.918 104.586C347.129 106.615 343.098 107.019 341.117 107.034C338.501 107.056 334.399 106.486 330.941 104.548C330.792 104.444 330.631 104.357 330.464 104.266C329.93 103.974 329.318 103.806 328.666 103.806C326.595 103.806 324.917 105.491 324.917 107.571C324.917 108.456 325.22 109.269 325.73 109.912C326.039 110.331 326.425 110.71 326.887 110.998C331.562 114.235 338.218 114.723 341.245 114.723C344.104 114.723 346.877 114.131 349.939 113.183C352.138 112.501 354.045 111.506 355.611 110.219C357.175 108.932 358.419 107.357 359.304 105.539C360.192 103.717 360.824 101.011 360.824 98.8372C360.824 88.8765 351.984 84.9391 344.268 83.4347C337.713 82.0739 334.392 79.2593 334.392 76.052C334.392 75.1235 334.622 74.3137 335.077 73.6413C335.548 72.9557 336.148 72.4061 336.87 72.0078C337.611 71.6004 338.479 71.2993 339.447 71.1105C340.439 70.9218 341.543 70.817 343.116 70.8232C345.337 70.8323 350.06 71.8357 352.099 72.844C352.67 73.1257 353.28 73.3887 353.901 73.542V73.542ZM317.522 69.6297C311.923 63.0651 302.929 63.1241 301.089 63.1345C299.386 63.1442 290.488 63.1872 285.102 69.6297C282.662 72.5483 281.695 75.746 281.026 78.5675C280.186 82.1162 280.075 85.3909 280.075 88.9001C280.075 95.5014 280.639 103.096 285.103 108.227C289.573 113.372 296.031 114.723 301.312 114.723C307.149 114.723 313.502 114.24 318.176 111.014C319.085 110.45 319.712 109.532 320.022 108.651C320.175 108.25 320.258 107.815 320.258 107.36C320.258 105.353 318.634 103.729 316.63 103.729C316.163 103.729 315.722 103.831 315.307 103.978C315.072 104.06 314.775 104.239 314.121 104.588C310.668 106.519 307.373 107.415 301.313 107.275C297.24 107.275 293.401 106.16 290.874 102.997C288.513 100.045 288.157 95.3509 288.105 90.1575H318.525C320.804 90.1575 322.65 88.311 322.65 86.0321C322.649 74.9299 317.522 69.6297 317.522 69.6297V69.6297ZM288.303 83.0718C288.287 82.2398 288.181 76.4385 292.93 72.8891C295.83 70.7212 298.999 70.5769 300.934 70.5769C302.868 70.5769 306.525 70.5012 309.738 72.9404C314.487 76.5461 314.532 82.2661 314.516 83.0718H288.303V83.0718ZM273.862 68.1905C273.862 66.0393 272.119 64.2968 269.97 64.2968C267.82 64.2968 266.078 66.0393 266.078 68.1905L266.071 104.778C266.071 105.441 265.586 106.048 265.085 106.253C264.583 106.459 262.426 107.302 255.078 107.302C251.393 107.302 247.486 105.829 245.096 102.668C242.685 99.4797 242.394 93.9255 242.394 88.2416L242.394 68.1905C242.394 66.0393 240.651 64.2968 238.502 64.2968C236.352 64.2968 234.61 66.0393 234.61 68.1905L234.607 88.2263C234.607 95.228 235.049 102.749 239.597 108.254C243.57 113.063 250.22 114.749 255.079 114.749C258.162 114.749 264.907 114.963 270.985 112.701C272.657 112.14 273.851 109.968 273.851 108.107L273.862 68.1905V68.1905ZM228.567 70.2271C228.567 68.5249 227.561 67.0594 226.113 66.3911C219.537 63.5647 212.078 63.1498 208.704 63.1498C203.568 63.1498 196.964 64.4842 192.494 69.6304C188.031 74.7599 187.389 82.6062 187.389 89.6086C187.389 96.611 188.031 103.065 192.494 108.195C196.964 113.341 203.406 114.731 208.704 114.731C213.58 114.731 218.96 112.544 220.662 110.695V117.383C220.662 120.975 219.805 123.809 218.079 125.8C216.373 127.773 213.95 128.772 210.879 128.772C208.852 128.772 206.754 128.506 204.642 127.987C202.543 127.468 198.983 125.773 197.721 125.165C196.459 124.558 194.123 125.025 193.062 126.732C192.001 128.441 192.707 130.991 194.377 131.909C196.046 132.828 198.167 134.083 202.615 135.23C205.453 135.962 208.234 136.306 210.879 136.306C213.78 136.306 216.371 135.839 218.581 134.862C220.791 133.888 222.655 132.541 224.119 130.862C225.579 129.191 226.699 127.155 227.446 124.823C228.19 122.51 228.567 120.003 228.567 117.382V70.2271V70.2271ZM220.56 98.5652C220.56 101.37 219.378 103.259 218.054 104.505C216.419 106.039 212.778 107.298 208.704 107.298C204.632 107.298 200.792 106.127 198.265 102.965C195.715 99.7768 195.411 95.2919 195.411 89.6079C195.411 83.9232 195.715 78.0463 198.265 74.8584C200.792 71.6969 204.716 70.5651 208.704 70.5651C211.798 70.5651 216.009 71.2361 219.521 72.4748C220.127 72.6857 220.561 73.2617 220.561 73.939V98.5652H220.56V98.5652ZM166.462 101.349C166.243 101.811 165.779 102.106 165.278 102.102C164.669 102.097 164.227 101.46 164.063 101.224C162.825 99.4513 153.153 72.633 151.056 66.8061C150.324 64.8318 148.1 63.8104 146.13 64.5383C144.165 65.2649 143.139 67.4785 143.856 69.452L156.428 102.805C157.903 106.749 160.028 108.985 163.145 110.105L155.503 130.353C154.746 132.348 155.75 134.579 157.745 135.336C159.74 136.094 161.971 135.091 162.728 133.096L186.806 69.4798C187.536 67.5125 186.533 65.2968 184.586 64.5508C182.623 63.7986 180.378 64.8006 179.626 66.779L166.462 101.349V101.349ZM138.849 68.1905C138.849 66.0393 137.107 64.2968 134.958 64.2968C132.808 64.2968 131.065 66.0393 131.065 68.1905L131.059 104.778C131.059 105.441 130.574 106.048 130.073 106.253C129.571 106.459 127.414 107.302 120.066 107.302C116.38 107.302 112.474 105.829 110.083 102.668C107.673 99.4797 107.382 93.9255 107.382 88.2416L107.381 68.1905C107.381 66.0393 105.639 64.2968 103.49 64.2968C101.34 64.2968 99.5974 66.0393 99.5974 68.1905L99.5946 88.2263C99.5946 95.228 100.036 102.749 104.584 108.254C108.557 113.063 115.208 114.749 120.067 114.749C123.149 114.749 129.894 114.963 135.973 112.701C137.645 112.14 138.839 109.968 138.839 108.107L138.849 68.1905V68.1905ZM89.6433 69.7185C85.171 64.5022 78.7154 63.1393 73.4321 63.1338C68.1488 63.1282 61.6925 64.5022 57.2215 69.7185C52.7582 74.9181 52.1165 81.7755 52.1165 88.465C52.1165 95.1559 52.7582 102.941 57.2215 108.142C61.6925 113.357 68.1495 114.732 73.4321 114.725C78.7147 114.72 85.171 113.357 89.6433 108.142C94.1067 102.941 94.7484 95.5625 94.7484 88.465C94.7484 81.3675 94.1067 74.9174 89.6433 69.7185ZM83.8724 102.84C81.3452 106.044 77.5048 107.294 73.4321 107.294C69.3593 107.294 65.519 106.044 62.9918 102.84C60.4424 99.6081 60.1386 94.2322 60.1386 88.4643C60.1386 82.6964 60.4424 78.249 62.9918 75.018C65.519 71.8135 69.3593 70.5727 73.4321 70.5727C77.5048 70.5727 81.3452 71.8142 83.8724 75.018C86.4218 78.2497 86.7263 82.7033 86.7263 88.4643C86.7263 94.2267 86.4218 99.6081 83.8724 102.84ZM41.6096 69.6297C37.1387 64.4835 30.6983 63.1338 25.3997 63.1338C20.5243 63.1338 15.1446 65.2773 13.4416 67.1294V43.787C13.4416 41.6053 11.6747 39.8379 9.49508 39.8379C7.31406 39.8379 5.54788 41.6053 5.54788 43.787L5.53748 107.518C5.53748 109.398 6.70984 111.004 8.36503 111.645C14.8463 114.331 22.09 114.721 25.3997 114.721C30.5373 114.721 37.1387 113.403 41.6096 108.258C46.0743 103.126 46.716 95.9407 46.716 88.939C46.716 81.9372 46.0743 74.7592 41.6096 69.6297ZM35.84 103.029C33.3122 106.189 29.3879 107.307 25.399 107.307C22.285 107.307 18.0374 106.647 14.5099 105.392H14.5127C13.9501 105.209 13.5443 104.681 13.5443 104.058V79.2586C13.5443 76.4545 14.7256 74.5642 16.0492 73.32C17.685 71.7843 21.3256 70.5817 25.399 70.5817C29.4725 70.5817 33.3122 71.6976 35.84 74.8591C38.3894 78.047 38.6926 83.2557 38.6926 88.9403C38.6926 94.625 38.3894 99.8399 35.84 103.029V103.029Z" fill="#CBCBCB"/>
<path d="M511.089 187.113C526.886 198.026 558.145 180.195 580.901 147.225C603.66 114.256 609.3 78.7215 593.503 67.8087C577.702 56.8953 547.231 73.8161 524.473 106.787C501.717 139.755 495.293 176.199 511.089 187.113Z" fill="#CBCBCB"/>
<path d="M471.681 187.113C455.884 198.026 424.625 180.195 401.869 147.225C379.11 114.256 373.47 78.7215 389.267 67.8087C405.068 56.8953 435.539 73.8161 458.297 106.787C481.053 139.755 487.477 176.199 471.681 187.113Z" fill="#CBCBCB"/>
<path d="M491.372 75.131C531.464 75.131 563.964 59.5839 563.964 40.4054C563.964 21.227 531.464 5.67981 491.372 5.67981C451.28 5.67981 418.779 21.227 418.779 40.4054C418.779 59.5839 451.28 75.131 491.372 75.131Z" fill="#CBCBCB"/>
<path d="M357.66 135.585H356.733C356.394 135.585 356.114 135.342 356.114 135.036V129.195L353.592 135.241C353.493 135.436 353.267 135.563 353.025 135.563H352.104C351.859 135.563 351.643 135.438 351.541 135.241L348.945 129.151V135.036C348.945 135.342 348.668 135.585 348.334 135.585H347.404C347.067 135.585 346.792 135.342 346.792 135.036V124.231C346.792 123.93 347.067 123.687 347.404 123.687H348.334C348.568 123.687 348.789 123.81 348.888 124.006L352.575 132.729L356.171 124.01C356.264 123.814 356.489 123.687 356.733 123.687H357.66C357.999 123.687 358.273 123.93 358.273 124.231V135.036C358.273 135.343 357.999 135.585 357.66 135.585V135.585ZM336.406 124.751C335.466 123.916 334.158 123.499 332.852 123.498C331.547 123.499 330.239 123.916 329.297 124.751C327.956 125.937 327.756 127.167 327.756 129.619C327.756 132.073 327.956 133.3 329.297 134.484C330.245 135.321 331.503 135.778 332.852 135.778C334.202 135.778 335.459 135.321 336.406 134.484C337.747 133.3 337.946 132.073 337.946 129.619C337.946 127.168 337.747 125.937 336.406 124.751ZM334.764 133.237C334.269 133.681 333.561 133.903 332.852 133.903C332.143 133.903 331.436 133.681 330.936 133.237C330.235 132.614 329.954 131.957 329.954 129.619C329.954 127.281 330.235 126.619 330.936 126.002C331.439 125.559 332.117 125.31 332.852 125.31C333.585 125.31 334.268 125.559 334.764 126.002C335.47 126.619 335.75 127.281 335.75 129.619C335.75 131.957 335.47 132.614 334.764 133.237ZM318.154 131.982L317.196 131.83C316.91 131.786 316.627 131.928 316.521 132.17C316.364 132.665 316.123 132.974 315.787 133.265C315.289 133.709 314.607 133.958 313.873 133.958C313.139 133.958 312.458 133.709 311.959 133.265C311.255 132.649 310.975 131.987 310.975 129.649C310.975 127.312 311.255 126.628 311.959 126.011C312.458 125.568 313.139 125.319 313.873 125.319C314.607 125.319 315.289 125.568 315.787 126.011C316.122 126.303 316.364 126.611 316.521 127.106C316.627 127.351 316.91 127.489 317.196 127.447L318.154 127.296C318.339 127.265 318.493 127.165 318.591 127.022C318.692 126.882 318.706 126.701 318.646 126.544C318.423 125.863 318.049 125.306 317.427 124.761C316.487 123.925 315.182 123.508 313.874 123.508C312.568 123.508 311.26 123.925 310.319 124.761C308.979 125.946 308.778 127.176 308.778 129.628C308.778 132.079 308.979 133.332 310.319 134.511C311.26 135.348 312.568 135.765 313.874 135.765C315.182 135.765 316.487 135.348 317.427 134.511C318.048 133.968 318.423 133.412 318.646 132.731C318.706 132.573 318.692 132.394 318.591 132.252C318.493 132.112 318.338 132.013 318.154 131.982V131.982ZM298.599 135.585H291.193C290.855 135.585 290.579 135.342 290.579 135.036V124.231C290.579 123.93 290.854 123.687 291.193 123.687H298.599C298.94 123.687 299.217 123.93 299.217 124.231V125.107C299.217 125.409 298.941 125.655 298.599 125.655H292.735V128.623H297.636C297.981 128.623 298.252 128.868 298.252 129.163V129.997C298.252 130.296 297.981 130.538 297.636 130.538H292.735V133.618H298.599C298.94 133.618 299.217 133.861 299.217 134.163V135.035C299.217 135.343 298.94 135.585 298.599 135.585V135.585ZM280.961 135.585H273.554C273.212 135.585 272.942 135.342 272.942 135.036V124.231C272.942 123.93 273.212 123.687 273.554 123.687H274.479C274.822 123.687 275.097 123.93 275.097 124.231V133.618H280.962C281.3 133.618 281.579 133.861 281.579 134.163V135.035C281.578 135.343 281.3 135.585 280.961 135.585ZM261.712 135.585H254.305C253.967 135.585 253.694 135.342 253.694 135.036V124.231C253.694 123.93 253.968 123.687 254.305 123.687H261.712C262.054 123.687 262.329 123.93 262.329 124.231V125.107C262.329 125.409 262.054 125.655 261.712 125.655H255.847V128.623H260.75C261.093 128.623 261.364 128.868 261.364 129.163V129.997C261.364 130.296 261.093 130.538 260.75 130.538H255.847V133.618H261.712C262.054 133.618 262.329 133.861 262.329 134.163V135.035C262.33 135.343 262.054 135.585 261.712 135.585V135.585ZM239.785 135.585H238.856C238.517 135.585 238.245 135.342 238.245 135.036V125.655H235.22C234.882 125.655 234.607 125.409 234.607 125.107V124.231C234.607 123.93 234.882 123.687 235.22 123.687H243.437C243.776 123.687 244.052 123.93 244.052 124.231V125.107C244.052 125.409 243.776 125.655 243.437 125.655H240.398V135.036C240.398 135.343 240.122 135.585 239.785 135.585Z" fill="#CBCBCB"/>
</svg>
