<svg xmlns="http://www.w3.org/2000/svg" data-name="Layer 1" viewBox="0 0 64 64"><path d="M28.692,9.323,27.319,7.869a6.8,6.8,0,0,1,9.362,0L35.308,9.323a4.8,4.8,0,0,0-6.616,0Z"/><path d="M38.279,6.693a8.667,8.667,0,0,0-12.558,0L24.279,5.307a10.667,10.667,0,0,1,15.442,0Z"/><rect width="2" height="2" x="31" y="10" rx="1"/><path d="M2 30V54H22V30zM13 41V51H11V41H8l4-8 4 8zM17 22H7a5 5 0 0 0-5 5v1H22V27A5 5 0 0 0 17 22zm-1 4H8V24h8zM2 56v1a5 5 0 0 0 5 5H17a5 5 0 0 0 5-5V56zm11 4H11V58h2zM41.593 10.963a17.079 17.079 0 0 0-2.038-1.2l.89-1.791a18.917 18.917 0 0 1 2.277 1.337zM45.609 14.81a17.143 17.143 0 0 0-1.851-2.088l1.383-1.444a19.055 19.055 0 0 1 2.067 2.331zM48.033 19.333a17.042 17.042 0 0 0-.94-2.165l1.774-.923a18.973 18.973 0 0 1 1.051 2.422zM15.967 19.333l-1.885-.666a18.973 18.973 0 0 1 1.051-2.422l1.774.923A17.042 17.042 0 0 0 15.967 19.333zM18.393 14.807l-1.6-1.2a19.241 19.241 0 0 1 2.068-2.331l1.383 1.444A17.144 17.144 0 0 0 18.393 14.807zM22.407 10.963l-1.129-1.65a18.917 18.917 0 0 1 2.277-1.337l.89 1.791A17.079 17.079 0 0 0 22.407 10.963zM36.893 43.364l-.514-1.933a16.973 16.973 0 0 0 2.232-.764l.778 1.843A19.025 19.025 0 0 1 36.893 43.364zM32 44c-.548 0-1.1-.023-1.646-.07l.17-1.993a17.31 17.31 0 0 0 2.951 0l.17 1.993C33.1 43.977 32.548 44 32 44zM27.107 43.364a19.025 19.025 0 0 1-2.5-.854l.778-1.843a16.973 16.973 0 0 0 2.232.764zM62 54V30H42V54zM56 43l-4 8-4-8h3V33h2V43zM57 22H47a5 5 0 0 0-5 5v1H62V27A5 5 0 0 0 57 22zm-1 4H48V24h8zM42 56v1a5 5 0 0 0 5 5H57a5 5 0 0 0 5-5V56zm11 4H51V58h2z"/></svg>