<svg width="197" height="197" viewBox="0 0 197 197" fill="none" xmlns="http://www.w3.org/2000/svg">
<path d="M92.7285 13.526C70.4806 14.803 49.6171 23.4483 32.964 38.2899L58.7187 64.0446C68.4109 55.9757 80.1794 51.0995 92.7285 49.9529V13.526Z" fill="#E97D2E"/>
<path d="M50.554 72.2039L24.7997 46.4496C9.94543 63.098 1.28936 83.9631 0.00424194 106.216H36.4327C37.587 93.6649 42.4735 81.8954 50.554 72.2039Z" fill="#E97D2E"/>
<path d="M160.567 106.216H196.996C195.711 83.9631 187.055 63.098 172.2 46.4496L146.446 72.2039C154.526 81.895 159.413 93.6649 160.567 106.216V106.216Z" fill="#E97D2E"/>
<path d="M160.559 117.759C159.75 126.649 157.213 134.063 154.213 140.01C157.14 144.524 159.58 148.339 161.192 150.872C165.582 157.772 164.61 166.628 158.828 172.411C157.424 173.815 155.82 174.946 154.082 175.782L160.081 181.781C161.209 182.909 162.689 183.474 164.169 183.474C165.649 183.474 167.128 182.909 168.256 181.781C185.542 164.497 195.621 141.944 197 117.759H160.559Z" fill="#E97D2E"/>
<path d="M36.4412 117.759H0C1.37938 141.944 11.4583 164.497 28.7431 181.781C29.872 182.91 31.3515 183.474 32.8309 183.474C34.3103 183.474 35.7901 182.909 36.919 181.781L54.4305 164.268C56.6879 162.011 56.6879 158.35 54.4305 156.092C49.8606 151.522 38.3496 138.728 36.4412 117.759V117.759Z" fill="#E97D2E"/>
<path d="M164.036 38.2899C147.383 23.448 126.519 14.803 104.271 13.526V49.9529C116.82 51.0995 128.589 55.9757 138.281 64.0446L164.036 38.2899Z" fill="#E97D2E"/>
<path d="M111.324 99.2606C104.253 92.1898 92.7481 92.1898 85.6773 99.2606C78.6065 106.331 78.6065 117.837 85.6773 124.908C94.61 133.84 138.51 161.87 143.486 165.037C145.768 166.49 148.753 166.162 150.666 164.249C152.579 162.336 152.907 159.352 151.454 157.069C148.287 152.093 120.257 108.193 111.324 99.2606V99.2606Z" fill="#E97D2E"/>
</svg>
