<svg width="200" height="204" viewBox="0 0 200 204" fill="none" xmlns="http://www.w3.org/2000/svg">
<g clip-path="url(#clip0)">
<path d="M61.4029 169.677V188.684C61.4029 194.083 58.724 196.964 53.856 196.964C48.9607 196.964 46.2657 194 46.2657 188.454V169.698H39.531V188.684C39.531 198.026 44.72 203.38 53.7673 203.38C62.9001 203.38 68.1377 197.924 68.1377 188.41V169.677H61.4029ZM86.1814 169.677L71.5541 202.862H78.4287L81.2521 196.435L81.4542 195.953H96.65L99.6302 202.862H106.692L92.2004 169.874L92.0702 169.677L86.1814 169.677ZM126.225 169.677L118.688 192.511L111.351 169.694H104.184L115.753 202.883H121.33L128.883 181.081L136.43 202.883H142.054L153.595 169.694H146.611L139.259 192.511L131.719 169.677H126.225ZM192.132 169.677V202.834H198.778V169.677H192.132ZM1.50769 169.679V202.881H8.24435V189.396H23.4552V202.881H30.1937V169.679H23.4552V183.073H8.24435V169.679H1.50769ZM159.027 169.702V202.858H184.1V196.813H165.673V188.592H177.926V182.544H165.673V175.747H183.458V169.702H159.027ZM89.035 178.08L93.8378 189.196H93.821L94.1477 189.963H83.9587L84.2815 189.196H84.2759L89.035 178.08Z" fill="#CBCBCB"/>
<path d="M85.3965 -0.000914457C82.7244 0.235436 75.5036 1.87901 75.5036 1.87901H75.5007C59.2252 6.08578 55.3784 20.8554 55.3784 20.8554C54.5836 23.339 54.2226 25.8842 54.1164 28.2822V31.546C54.3324 36.5886 55.4538 40.3539 55.4538 40.3539C60.8904 64.4604 87.6209 104.071 93.3658 112.392C93.7734 112.796 94.0998 112.65 94.0998 112.65C94.7199 112.479 94.6714 111.884 94.6714 111.884L94.6831 111.887C103.532 23.4428 85.3966 -0.000828793 85.3966 -0.000828793L85.3965 -0.000914457ZM114.634 -0.000914457C114.634 -0.000914457 96.4197 23.4552 105.275 111.951H105.287C105.355 112.513 105.754 112.63 105.754 112.63C106.347 112.859 106.65 112.29 106.65 112.29L106.653 112.296C112.546 103.762 139.124 64.3675 144.536 40.3534C144.536 40.3534 147.471 28.7306 144.638 20.8549C144.638 20.8549 140.614 5.85661 124.318 1.8931C124.318 1.8931 119.622 0.700917 114.634 -0.00134277L114.634 -0.000914457ZM30.6202 26.5502C30.6202 26.5502 15.1127 41.2689 14.342 56.8729H14.3481V59.2373C14.3599 59.4153 14.3689 59.5955 14.3801 59.7768C15.0481 72.3594 24.5138 79.8063 24.5138 79.8063C39.765 94.6704 76.6938 113.437 85.2751 117.695C85.3953 117.74 85.8387 117.885 86.099 117.556C86.099 117.556 86.2345 117.453 86.2963 117.268V116.877C86.2901 116.854 86.2783 116.832 86.2671 116.807H86.2701C62.7699 65.4695 30.6205 26.5497 30.6205 26.5497L30.6202 26.5502ZM169.373 26.5502C169.373 26.5502 137.32 65.3477 113.831 116.581L113.839 116.578C113.839 116.578 113.562 117.172 114.011 117.556C114.011 117.556 114.144 117.657 114.33 117.698H114.655C114.713 117.681 114.776 117.659 114.837 117.616V117.622C123.652 113.247 160.295 94.6042 175.474 79.8087C175.474 79.8087 185.087 72.0894 185.59 59.6952C186.7 42.481 169.373 26.5497 169.373 26.5497L169.373 26.5502ZM198.222 77.5174C198.222 77.5174 145.966 105.56 118.948 123.785L118.951 123.788L118.957 123.793C118.957 123.793 118.467 124.114 118.638 124.69C118.638 124.69 118.894 125.154 119.268 125.154V125.157C128.945 125.174 165.565 125.215 166.484 125.044C166.484 125.044 171.219 124.854 177.07 122.607C177.07 122.607 190.096 118.465 196.861 103.677C196.861 103.677 199.953 97.493 199.997 88.8055V88.4372C199.975 85.0869 199.503 81.3781 198.222 77.5174H198.222ZM1.75683 77.6482C-2.9976 92.3667 3.40305 104.227 3.41339 104.246C10.0837 118.34 22.8162 122.61 22.8162 122.61C28.6946 125.025 34.5744 125.192 34.5744 125.192C35.4926 125.36 71.1372 125.209 80.688 125.164C81.0922 125.161 81.3146 124.755 81.3146 124.755C81.3427 124.71 81.3674 124.665 81.3785 124.624V124.255C81.2993 124.009 81.0884 123.835 81.0884 123.835L81.0945 123.832C54.0897 105.613 1.75726 77.6489 1.75726 77.6489L1.75683 77.6482ZM79.5971 129.689L18.125 131.844C24.7914 143.728 36.0184 152.964 47.7137 150.127C55.7846 148.109 74.0688 135.356 80.1048 131.046L80.0846 131.03C80.5539 130.608 80.3863 130.269 80.3863 130.269C80.2319 129.718 79.5972 129.718 79.5972 129.718L79.5971 129.689ZM120.312 129.734L120.305 129.756C120.305 129.756 119.766 129.824 119.615 130.229C119.615 130.229 119.484 130.781 119.847 131.056L119.841 131.061C125.726 135.282 143.567 147.755 152.162 150.177C152.162 150.177 153.464 150.62 155.647 150.699H156.958C162.717 150.497 172.748 147.538 181.864 131.876L120.312 129.734Z" fill="#CBCBCB"/>
</g>
<defs>
<clipPath id="clip0">
<rect width="200" height="203.38" fill="white"/>
</clipPath>
</defs>
</svg>
