<svg width="345" height="71" viewBox="0 0 345 71" fill="none" xmlns="http://www.w3.org/2000/svg">
<path d="M6.87634 6.58362H67.2909V62.3509H6.87634V6.58362Z" fill="white"/>
<path d="M46.5473 36.6617C46.5473 31.369 42.2873 27.109 36.9946 27.109C31.7018 27.109 27.4418 31.369 27.4418 36.6617C27.4418 40.7926 30.0237 44.2781 33.6382 45.569L29.8946 65.1908H36.9946H44.0946L40.48 45.569C43.9655 44.149 46.5473 40.7926 46.5473 36.6617Z" fill="#CBCBCB"/>
<path d="M67.3309 36.5239C67.3309 20.0003 53.7764 6.57483 37.1237 6.57483C20.4709 6.57483 6.91638 20.0003 6.91638 36.5239C6.91638 47.4966 12.8546 57.0494 21.7618 62.213L23.6982 49.433C20.8582 46.3348 19.0509 42.0748 19.0509 37.5566C19.0509 27.7457 27.0546 19.7421 36.9946 19.7421C46.9346 19.7421 54.9382 27.7457 54.9382 37.5566C54.9382 42.2039 53.1309 46.3348 50.2909 49.5621L52.2273 62.3421C61.2637 57.1785 67.3309 47.4966 67.3309 36.5239Z" fill="#CBCBCB"/>
<path d="M107.736 47.5054C113.804 47.5054 118.709 42.5999 118.709 36.6617C118.709 30.7236 113.804 25.8181 107.736 25.8181C101.669 25.8181 96.7637 30.7236 96.7637 36.6617C96.7637 42.5999 101.669 47.5054 107.736 47.5054ZM107.736 56.2836C96.7637 56.2836 87.8564 47.5054 87.8564 36.5326C87.8564 25.5599 96.7637 16.7817 107.736 16.7817C118.709 16.7817 127.616 25.5599 127.616 36.5326C127.616 47.5054 118.709 56.2836 107.736 56.2836Z" fill="#CBCBCB"/>
<path d="M131.747 18.0726V55.2508C131.747 55.6381 132.005 55.8963 132.393 55.8963H139.493C139.88 55.8963 140.138 55.6381 140.138 55.2508V40.9217H147.755C147.755 40.9217 158.34 40.4054 158.34 29.0454C158.34 17.6854 147.625 17.2981 147.625 17.2981H132.393C132.005 17.2981 131.747 17.5563 131.747 18.0726ZM145.56 23.1072C145.56 23.1072 151.111 22.9781 151.111 29.0454C151.111 34.9836 145.56 34.9836 145.56 34.9836H140.009V23.4945C140.009 22.9781 140.396 23.1072 140.396 23.1072H145.56Z" fill="#CBCBCB"/>
<path d="M267.035 18.0726V55.2508C267.035 55.6381 267.293 55.8963 267.68 55.8963H274.78C275.167 55.8963 275.425 55.6381 275.425 55.2508V40.9217H283.042C283.042 40.9217 293.627 40.4054 293.627 29.0454C293.627 17.6854 282.913 17.2981 282.913 17.2981H267.68C267.422 17.2981 267.035 17.5563 267.035 18.0726ZM280.847 23.1072C280.847 23.1072 286.398 22.9781 286.398 29.0454C286.398 34.9836 280.847 34.9836 280.847 34.9836H275.296V23.4945C275.296 22.9781 275.684 23.1072 275.684 23.1072H280.847Z" fill="#CBCBCB"/>
<path d="M162.6 55.2509C162.6 55.6382 162.858 55.8963 163.245 55.8963H188.935C189.322 55.8963 189.58 55.6382 189.58 55.2509V49.8291C189.58 49.4418 189.322 49.1836 188.935 49.1836H171.636C171.249 49.1836 170.991 48.9254 170.991 48.5382V39.8891C170.991 39.5018 171.249 39.2436 171.636 39.2436H183.125C183.513 39.2436 183.771 38.9854 183.771 38.5982V33.1763C183.771 32.7891 183.513 32.5309 183.125 32.5309H171.636C171.249 32.5309 170.991 32.2727 170.991 31.8854V24.5272C170.991 24.14 171.249 23.8818 171.636 23.8818H188.935C189.322 23.8818 189.58 23.6236 189.58 23.2363V17.8145C189.58 17.4272 189.322 17.1691 188.935 17.1691H163.375C162.987 17.1691 162.729 17.4272 162.729 17.8145L162.6 55.2509Z" fill="#CBCBCB"/>
<path d="M221.982 17.2981H216.56C216.173 17.2981 215.915 17.5563 215.915 17.9436V41.0508L202.102 17.2981H195.389C195.002 17.2981 194.615 17.6854 194.615 18.0726V55.2508C194.615 55.6381 194.873 55.8963 195.26 55.8963H200.682C201.069 55.8963 201.327 55.6381 201.327 55.2508V28.529L217.076 55.7672V55.8963H221.853C222.24 55.8963 222.498 55.6381 222.498 55.2508V17.9436C222.498 17.5563 222.24 17.2981 221.982 17.2981Z" fill="#CBCBCB"/>
<path d="M326.287 17.2981H320.865C320.478 17.2981 320.22 17.5563 320.22 17.9436V41.0508L306.407 17.2981H299.695C299.178 17.2981 298.92 17.6854 298.92 18.0726V55.1217C298.92 55.509 299.178 55.7672 299.565 55.7672H304.987C305.375 55.7672 305.633 55.509 305.633 55.1217V28.529L321.511 55.7672V55.8963H326.287C326.675 55.8963 326.933 55.6381 326.933 55.2508V17.9436C326.933 17.5563 326.546 17.2981 326.287 17.2981Z" fill="#CBCBCB"/>
<path d="M247.671 55.3799L261.484 18.2017C261.613 17.8145 261.355 17.2981 260.838 17.2981H254.642C254.384 17.2981 254.125 17.4272 253.996 17.6854L244.96 42.0835L235.924 17.6854C235.795 17.4272 235.536 17.2981 235.278 17.2981H229.082C228.695 17.2981 228.307 17.6854 228.436 18.2017L242.249 55.3799C242.378 55.6381 242.636 55.7672 242.895 55.7672H247.025C247.284 55.7672 247.542 55.6381 247.671 55.3799Z" fill="#CBCBCB"/>
<path d="M337.736 21.3C337.736 23.1073 336.316 24.6564 334.38 24.6564C332.444 24.6564 331.024 23.2364 331.024 21.3C331.024 19.4928 332.573 18.0728 334.38 18.0728C336.316 18.0728 337.736 19.4928 337.736 21.3ZM331.798 21.3C331.798 22.72 332.831 23.8818 334.38 23.8818C335.8 23.8818 336.833 22.72 336.833 21.3C336.833 19.88 335.8 18.7182 334.38 18.7182C332.96 18.7182 331.798 19.88 331.798 21.3ZM333.864 22.9782H333.089V19.7509C333.347 19.7509 333.864 19.6218 334.38 19.6218C335.025 19.6218 335.284 19.7509 335.542 19.88C335.671 20.0091 335.8 20.2673 335.8 20.6546C335.8 21.0418 335.542 21.3 335.155 21.4291C335.413 21.5582 335.671 21.8164 335.8 22.2037C335.929 22.72 335.929 22.8491 336.058 22.9782H335.284C335.155 22.8491 335.155 22.5909 335.025 22.2037C335.025 21.8164 334.767 21.6873 334.38 21.6873H333.993V22.9782H333.864V22.9782ZM333.864 21.1709H334.251C334.638 21.1709 335.025 21.0418 335.025 20.6546C335.025 20.3964 334.767 20.1382 334.38 20.1382C334.122 20.1382 333.993 20.1382 333.993 20.1382V21.1709H333.864Z" fill="#CBCBCB"/>
</svg>
