<svg width="311" height="312" viewBox="0 0 311 312" fill="none" xmlns="http://www.w3.org/2000/svg">
<path d="M0 0H310.631C310.628 103.876 310.635 207.752 310.628 311.628C207.088 311.634 103.541 311.628 0 311.631V0ZM268.952 225.405C268.939 226.065 268.936 226.729 268.948 227.393C270.433 227.383 271.923 227.39 273.407 227.39C273.417 231.524 273.407 235.658 273.414 239.795C274.225 239.789 275.035 239.789 275.846 239.792C275.846 235.658 275.843 231.524 275.85 227.39C277.337 227.39 278.831 227.387 280.318 227.39C280.315 226.729 280.315 226.072 280.318 225.411C276.529 225.405 272.74 225.417 268.952 225.405ZM283.152 225.408C283.142 230.203 283.142 234.997 283.152 239.792C283.959 239.792 284.767 239.792 285.578 239.792C285.594 235.863 285.552 231.938 285.604 228.009C287.229 231.902 288.697 235.86 290.248 239.783C290.768 239.786 291.29 239.786 291.819 239.786C293.383 235.847 294.874 231.88 296.48 227.961C296.508 231.902 296.486 235.847 296.496 239.792C297.3 239.789 298.108 239.789 298.916 239.799C298.945 235.004 298.919 230.209 298.928 225.414C297.698 225.405 296.467 225.408 295.239 225.414C293.87 229.016 292.473 232.608 291.085 236.203C289.687 232.602 288.264 229.01 286.867 225.408C285.626 225.411 284.386 225.408 283.152 225.408ZM36.8716 240.742C30.8263 240.985 24.7392 243.728 21.1396 248.715C18.0432 252.894 16.8059 258.205 16.8315 263.346C16.7386 268.186 17.713 273.17 20.2965 277.317C22.3897 280.71 25.5951 283.372 29.2813 284.867C33.7239 286.672 38.7051 286.996 43.385 286.031C47.7251 285.136 51.8344 282.859 54.6616 279.405C57.2131 276.348 58.6907 272.506 59.2934 268.593C59.944 264.049 59.771 259.328 58.4311 254.921C57.1746 250.79 54.6263 247.028 51.0843 244.542C46.9846 241.63 41.84 240.475 36.8716 240.742ZM78.2468 246.877C78.2532 245.196 78.2532 243.516 78.2468 241.838C74.6279 241.838 71.0091 241.819 67.3902 241.851C67.4094 256.335 67.3934 270.819 67.3998 285.303C71.2783 285.319 75.1568 285.303 79.0354 285.313C79.0546 275.697 79.0129 266.079 79.0578 256.467C79.5322 255.052 80.8272 254.029 82.119 253.359C85.0839 251.948 88.4432 251.826 91.6646 251.797C91.6646 248.205 91.6614 244.613 91.6678 241.024C86.5905 240.549 81.5163 243.064 78.2468 246.877ZM106.724 242.201C102.775 243.465 99.2518 246.03 96.8734 249.443C99.4409 250.947 102.034 252.41 104.621 253.878C106.826 251.139 110.086 249.25 113.612 248.971C116.135 248.753 119.157 248.882 120.959 250.931C122.234 252.397 121.863 254.446 121.911 256.226C115.987 256.925 110.009 257.9 104.489 260.251C101.374 261.605 98.335 263.545 96.4951 266.489C94.4405 269.793 94.2321 274.017 95.3765 277.676C96.306 280.694 98.5434 283.273 101.422 284.565C104.72 286.102 108.493 286.018 112.009 285.457C115.516 284.87 118.875 283.5 121.847 281.547C122.177 282.801 122.507 284.052 122.84 285.309C126.235 285.306 129.629 285.309 133.024 285.309C132.899 275.264 132.979 265.213 132.966 255.168C133.168 252.207 132.61 249.074 130.754 246.691C128.341 243.468 124.344 241.941 120.494 241.325C115.917 240.668 111.153 240.783 106.724 242.201ZM163.385 241.268C159.318 242.108 155.756 244.398 152.436 246.797C152.102 245.097 151.718 243.404 151.416 241.701C148.246 242.134 145.073 242.573 141.903 243.019C141.896 257.095 141.903 271.169 141.903 285.242C145.695 285.245 149.483 285.242 153.279 285.242C153.279 274.867 153.279 264.494 153.279 254.122C155.965 251.884 159.039 249.844 162.584 249.401C164.369 249.202 166.466 249.308 167.767 250.723C169.052 252.227 169.258 254.315 169.318 256.217C169.325 265.893 169.322 275.566 169.322 285.242C173.136 285.248 176.95 285.242 180.765 285.242C180.765 274.95 180.765 264.658 180.765 254.366C180.72 252.3 180.438 250.219 179.726 248.275C178.8 245.662 176.88 243.4 174.345 242.252C170.937 240.703 167.014 240.578 163.385 241.268ZM193.115 247.592C189.628 252.317 188.407 258.356 188.519 264.142C188.567 269.421 189.737 274.947 193.08 279.155C195.731 282.577 199.863 284.687 204.132 285.136C207.248 285.434 210.578 285.303 213.364 283.715C215.3 282.635 216.662 280.819 217.806 278.962C217.896 280.79 217.832 282.622 217.851 284.45C217.778 286.871 217.425 289.508 215.752 291.387C214.226 293.084 211.848 293.683 209.642 293.69C207.325 293.722 204.821 293.642 202.815 292.336C201.815 291.692 201.302 290.563 201.007 289.453C197.244 290.059 193.484 290.669 189.721 291.275C190.404 294.79 192.852 297.773 195.952 299.46C200.792 302.154 206.546 302.452 211.944 301.932C216.624 301.464 221.566 300.13 224.903 296.605C227.894 293.443 228.83 288.94 228.897 284.713C228.897 270.376 228.897 256.043 228.897 241.707C225.669 241.726 222.441 241.659 219.217 241.742C218.967 243.343 218.653 244.937 218.374 246.537C217.374 244.462 215.425 243.022 213.335 242.175C210.588 241.05 207.559 240.783 204.613 240.953C200.036 241.3 195.792 243.894 193.115 247.592ZM240.703 247.265C237.561 251.008 236.16 255.912 235.811 260.719C235.475 265.967 235.965 271.438 238.359 276.194C240.215 279.902 243.401 282.939 247.258 284.472C252.21 286.47 257.768 286.451 262.929 285.357C267.98 284.251 272.734 281.214 275.305 276.634C272.5 275.091 269.699 273.532 266.907 271.967C265.653 273.767 264.128 275.45 262.15 276.448C259.922 277.583 257.323 277.727 254.89 277.375C252.534 277.031 250.306 275.733 249.021 273.702C247.434 271.207 246.998 268.16 246.979 265.251C256.556 265.258 266.137 265.251 275.721 265.255C276.045 261.428 275.68 257.528 274.58 253.85C273.372 249.86 270.917 246.165 267.371 243.91C263.025 241.094 257.595 240.485 252.55 241.078C248.033 241.624 243.623 243.708 240.703 247.265Z" fill="#CBCBCB"/>
<path d="M249.636 251.223C251.021 249.655 253.085 248.811 255.146 248.686C257.774 248.49 260.643 249.228 262.438 251.271C264.025 253.038 264.554 255.482 264.615 257.801C258.794 257.798 252.973 257.807 247.152 257.795C247.341 255.44 248.027 253.013 249.636 251.223Z" fill="#CBCBCB"/>
<path d="M207.065 249.18C209.745 248.686 212.662 249.549 214.559 251.534C216.79 253.818 217.697 257.066 217.89 260.187C217.98 262.474 217.883 264.777 217.521 267.038C217.114 269.421 216.313 271.858 214.595 273.619C213.03 275.213 210.755 275.941 208.559 275.887C206.514 275.951 204.36 275.3 202.943 273.757C201.039 271.791 200.408 268.988 200.1 266.351C199.85 263.667 199.776 260.95 200.129 258.272C200.462 255.918 201.19 253.526 202.76 251.691C203.853 250.392 205.395 249.485 207.065 249.18Z" fill="#CBCBCB"/>
<path d="M36.4036 250.559C39.1795 250.145 42.2855 250.604 44.4588 252.512C46.5006 254.273 47.4943 256.932 47.9398 259.53C48.411 262.451 48.3918 265.46 47.8245 268.362C47.3052 270.912 46.1705 273.484 44.0549 275.091C41.6957 276.849 38.532 277.163 35.7177 276.582C33.4194 276.114 31.3776 274.616 30.2044 272.583C28.512 269.639 28.1401 266.143 28.2107 262.801C28.3196 259.799 28.8485 256.675 30.557 254.141C31.8808 252.172 34.0605 250.867 36.4036 250.559Z" fill="#CBCBCB"/>
<path d="M111.371 265.569C114.615 264.225 118.112 263.628 121.577 263.189C121.59 266.576 121.571 269.966 121.587 273.356C118.689 275.96 114.993 278.007 111.009 277.933C109.673 277.968 108.349 277.397 107.438 276.425C105.704 274.472 105.454 271.38 106.797 269.148C107.797 267.419 109.589 266.345 111.371 265.569Z" fill="#CBCBCB"/>
<path d="M310.631 0H310.894V311.894H0V311.631C103.541 311.628 207.088 311.634 310.628 311.628C310.635 207.752 310.628 103.876 310.631 0Z" fill="#CBCBCB"/>
<path d="M268.952 225.405C272.74 225.417 276.529 225.405 280.318 225.411C280.315 226.072 280.315 226.729 280.318 227.39C278.831 227.387 277.337 227.39 275.85 227.39C275.843 231.524 275.846 235.658 275.846 239.792C275.036 239.789 274.225 239.789 273.414 239.796C273.407 235.658 273.417 231.524 273.407 227.39C271.923 227.39 270.433 227.384 268.948 227.393C268.936 226.729 268.939 226.065 268.952 225.405Z" fill="white"/>
<path d="M283.152 225.408C284.386 225.408 285.626 225.411 286.867 225.408C288.264 229.01 289.687 232.602 291.085 236.203C292.473 232.608 293.87 229.016 295.239 225.414C296.467 225.408 297.698 225.405 298.929 225.414C298.919 230.209 298.945 235.004 298.916 239.799C298.108 239.789 297.3 239.789 296.496 239.792C296.486 235.847 296.508 231.902 296.48 227.961C294.874 231.88 293.383 235.847 291.819 239.786C291.29 239.786 290.768 239.786 290.248 239.783C288.697 235.86 287.229 231.902 285.604 228.009C285.552 231.938 285.594 235.863 285.578 239.792C284.767 239.792 283.959 239.792 283.152 239.792C283.142 234.997 283.142 230.203 283.152 225.408Z" fill="white"/>
<path d="M36.8716 240.742C41.84 240.475 46.9846 241.63 51.0843 244.542C54.6263 247.028 57.1746 250.79 58.4311 254.921C59.771 259.328 59.944 264.049 59.2933 268.593C58.6907 272.506 57.213 276.348 54.6616 279.405C51.8344 282.859 47.7251 285.136 43.385 286.031C38.7051 286.996 33.7239 286.672 29.2813 284.867C25.5951 283.372 22.3897 280.71 20.2965 277.317C17.713 273.17 16.7386 268.186 16.8315 263.346C16.8059 258.205 18.0432 252.894 21.1396 248.715C24.7392 243.728 30.8263 240.985 36.8716 240.742ZM36.4036 250.559C34.0605 250.867 31.8808 252.172 30.557 254.141C28.8485 256.675 28.3196 259.799 28.2107 262.801C28.1401 266.143 28.512 269.639 30.2044 272.583C31.3776 274.616 33.4194 276.114 35.7177 276.582C38.532 277.163 41.6957 276.849 44.0549 275.091C46.1705 273.484 47.3052 270.912 47.8245 268.362C48.3918 265.46 48.411 262.451 47.9398 259.53C47.4943 256.932 46.5006 254.273 44.4588 252.512C42.2855 250.604 39.1795 250.145 36.4036 250.559Z" fill="white"/>
<path d="M78.2468 246.877C81.5163 243.064 86.5905 240.549 91.6678 241.024C91.6614 244.613 91.6646 248.205 91.6646 251.797C88.4432 251.826 85.0839 251.948 82.1189 253.359C80.8272 254.029 79.5322 255.052 79.0578 256.467C79.0129 266.079 79.0546 275.697 79.0354 285.313C75.1568 285.303 71.2783 285.319 67.3998 285.303C67.3934 270.819 67.4094 256.335 67.3902 241.851C71.0091 241.819 74.6279 241.838 78.2468 241.838C78.2532 243.516 78.2532 245.196 78.2468 246.877Z" fill="white"/>
<path d="M106.724 242.201C111.153 240.783 115.917 240.668 120.494 241.325C124.344 241.941 128.341 243.468 130.754 246.691C132.61 249.074 133.168 252.207 132.966 255.168C132.979 265.213 132.899 275.264 133.024 285.309C129.629 285.309 126.235 285.306 122.84 285.309C122.507 284.052 122.177 282.801 121.847 281.547C118.875 283.5 115.516 284.87 112.009 285.457C108.493 286.018 104.72 286.102 101.422 284.565C98.5434 283.273 96.306 280.694 95.3764 277.676C94.2321 274.017 94.4405 269.793 96.4951 266.489C98.335 263.545 101.374 261.605 104.489 260.251C110.009 257.9 115.987 256.925 121.911 256.226C121.863 254.446 122.234 252.397 120.959 250.931C119.157 248.882 116.135 248.753 113.612 248.971C110.086 249.25 106.826 251.139 104.621 253.878C102.034 252.409 99.4409 250.947 96.8734 249.443C99.2518 246.03 102.774 243.464 106.724 242.201ZM111.371 265.569C109.589 266.345 107.797 267.419 106.797 269.148C105.454 271.38 105.704 274.472 107.438 276.425C108.349 277.397 109.673 277.968 111.009 277.933C114.993 278.006 118.689 275.96 121.587 273.356C121.571 269.966 121.59 266.576 121.577 263.189C118.112 263.628 114.615 264.225 111.371 265.569Z" fill="white"/>
<path d="M163.385 241.268C167.014 240.578 170.937 240.703 174.344 242.252C176.88 243.4 178.8 245.662 179.726 248.275C180.438 250.219 180.72 252.301 180.765 254.366C180.765 264.658 180.765 274.95 180.765 285.242C176.95 285.242 173.136 285.248 169.322 285.242C169.322 275.566 169.325 265.893 169.318 256.217C169.258 254.315 169.052 252.227 167.767 250.723C166.466 249.308 164.369 249.202 162.584 249.401C159.039 249.844 155.965 251.884 153.279 254.122C153.279 264.494 153.279 274.867 153.279 285.242C149.483 285.242 145.695 285.245 141.903 285.242C141.903 271.169 141.896 257.095 141.903 243.019C145.073 242.573 148.246 242.134 151.416 241.701C151.718 243.404 152.102 245.097 152.436 246.797C155.756 244.398 159.318 242.108 163.385 241.268Z" fill="white"/>
<path d="M193.115 247.592C195.792 243.894 200.036 241.3 204.613 240.953C207.559 240.783 210.588 241.05 213.335 242.175C215.425 243.022 217.374 244.462 218.374 246.537C218.653 244.937 218.967 243.343 219.217 241.742C222.441 241.659 225.669 241.726 228.897 241.707C228.897 256.043 228.897 270.376 228.897 284.713C228.83 288.94 227.894 293.443 224.903 296.605C221.566 300.13 216.624 301.464 211.944 301.932C206.546 302.452 200.792 302.154 195.952 299.46C192.852 297.773 190.404 294.79 189.721 291.275C193.484 290.669 197.244 290.059 201.007 289.453C201.302 290.563 201.815 291.692 202.815 292.336C204.821 293.642 207.325 293.722 209.642 293.69C211.848 293.683 214.226 293.084 215.752 291.387C217.425 289.508 217.778 286.871 217.851 284.45C217.832 282.622 217.896 280.79 217.806 278.962C216.662 280.819 215.3 282.635 213.364 283.715C210.578 285.303 207.248 285.434 204.132 285.136C199.863 284.687 195.731 282.577 193.08 279.155C189.737 274.947 188.567 269.421 188.519 264.142C188.407 258.356 189.628 252.317 193.115 247.592ZM207.065 249.18C205.395 249.485 203.853 250.392 202.76 251.691C201.19 253.526 200.462 255.918 200.129 258.272C199.776 260.95 199.85 263.667 200.1 266.351C200.408 268.988 201.039 271.791 202.943 273.757C204.36 275.3 206.514 275.951 208.559 275.887C210.755 275.941 213.03 275.213 214.595 273.619C216.313 271.858 217.114 269.421 217.521 267.038C217.883 264.777 217.98 262.474 217.89 260.187C217.697 257.066 216.79 253.818 214.559 251.534C212.662 249.549 209.745 248.686 207.065 249.18Z" fill="white"/>
<path d="M240.703 247.265C243.623 243.708 248.033 241.624 252.55 241.078C257.595 240.485 263.025 241.094 267.371 243.91C270.917 246.165 273.372 249.86 274.58 253.85C275.68 257.528 276.045 261.428 275.721 265.254C266.137 265.251 256.556 265.258 246.979 265.251C246.998 268.16 247.434 271.207 249.021 273.702C250.306 275.733 252.534 277.031 254.89 277.375C257.323 277.727 259.922 277.583 262.15 276.448C264.128 275.45 265.653 273.766 266.907 271.967C269.699 273.532 272.5 275.091 275.305 276.634C272.734 281.214 267.98 284.251 262.929 285.357C257.768 286.451 252.21 286.47 247.258 284.472C243.401 282.939 240.215 279.902 238.359 276.194C235.965 271.438 235.475 265.967 235.811 260.719C236.16 255.912 237.561 251.008 240.703 247.265ZM249.636 251.223C248.027 253.012 247.341 255.44 247.152 257.794C252.973 257.807 258.794 257.798 264.615 257.801C264.554 255.482 264.025 253.038 262.438 251.271C260.643 249.228 257.774 248.49 255.146 248.686C253.085 248.811 251.021 249.655 249.636 251.223Z" fill="white"/>
</svg>
