<svg width="328" height="328" viewBox="0 0 328 328" fill="none" xmlns="http://www.w3.org/2000/svg">
<g clip-path="url(#clip0)">
<path d="M328 0H0V328H328V0Z" fill="#CBCBCB"/>
<path d="M106.694 150.225C94.6552 146.853 93.2397 140.51 93.2397 136.396C93.2397 128.525 99.3451 123.268 110.326 123.268C117.904 123.268 124.596 126.496 129.472 132.968L142.698 125.254C136.278 115.839 126.355 107.997 110.283 107.997C91.3237 107.997 75.7671 119.782 75.7671 137.168C75.7671 154.239 90.4515 162.039 106.137 166.453C106.137 166.453 113.343 168.524 113.4 168.538C126.855 172.096 127.899 178.153 127.899 183.41C127.899 193.009 117.833 198.938 109.111 198.938C99.9885 198.938 92.7965 195.952 86.9198 185.567L73.6938 193.424C82.2586 208.138 92.5391 214.123 109.182 214.123C127.556 214.123 145.3 200.124 145.3 182.638C145.3 161.939 128.485 156.096 113.929 152.324C113.887 152.296 106.694 150.225 106.694 150.225ZM273.285 155.796C288.412 155.796 293.131 149.339 293.131 139.682C293.131 133.311 290.257 125.368 273.857 125.368H254.582V155.796H273.285V155.796ZM294.203 211.723L271.512 170.924H254.582V211.723H237.882V110.397H275.358C290.443 110.397 310.56 114.625 310.56 139.839C310.56 156.996 301.653 164.91 287.626 168.61L314.006 211.723H294.203V211.723ZM161.829 211.723V110.397H223.827V126.425H178.515V154.167H217.507V169.881H178.515V211.723H161.829V211.723Z" fill="white"/>
</g>
<defs>
<clipPath id="clip0">
<rect width="328" height="328" fill="white"/>
</clipPath>
</defs>
</svg>
