<svg width="152" height="152" viewBox="0 0 152 152" fill="none" xmlns="http://www.w3.org/2000/svg">
<g clip-path="url(#clip0)">
<path d="M62.9411 89.0589C48.433 74.5507 45.1571 60.0426 44.4181 54.2299C44.2116 52.6227 44.7647 51.0109 45.9145 49.8691L57.6552 38.1336C59.3822 36.4076 59.6887 33.7177 58.3942 31.6474L39.7008 2.62065C38.2687 0.328202 35.328 -0.499166 32.9106 0.710171L2.90111 14.8436C0.946225 15.8062 -0.203609 17.8832 0.0183462 20.0509C1.59076 34.9888 8.10317 71.7099 44.1901 107.799C80.277 143.889 116.993 150.399 131.939 151.971C134.106 152.193 136.183 151.043 137.146 149.088L151.279 119.079C152.484 116.667 151.662 113.734 149.379 112.299L120.353 93.611C118.283 92.3151 115.594 92.6194 113.866 94.3448L102.131 106.085C100.989 107.235 99.3773 107.788 97.7701 107.582C91.9574 106.843 77.4492 103.567 62.9411 89.0589V89.0589Z" fill="#E97D2E"/>
<path d="M120.552 81.2414C117.657 81.2414 115.31 78.8947 115.31 76C115.286 54.2997 97.7003 36.7142 76 36.6897C73.1053 36.6897 70.7586 34.343 70.7586 31.4483C70.7586 28.5536 73.1053 26.2069 76 26.2069C103.487 26.2372 125.763 48.5126 125.793 76C125.793 78.8947 123.446 81.2414 120.552 81.2414Z" fill="#E97D2E"/>
<path d="M146.759 81.2414C143.864 81.2414 141.517 78.8947 141.517 76C141.477 39.8326 112.167 10.5232 76 10.4828C73.1053 10.4828 70.7586 8.13611 70.7586 5.24138C70.7586 2.34665 73.1053 0 76 0C117.954 0.0462181 151.954 34.0455 152 76C152 77.3901 151.448 78.7233 150.465 79.7062C149.482 80.6892 148.149 81.2414 146.759 81.2414Z" fill="#E97D2E"/>
</g>
<defs>
<clipPath id="clip0">
<rect width="152" height="152" fill="white"/>
</clipPath>
</defs>
</svg>
