<svg width="692" height="146" viewBox="0 0 692 146" fill="none" xmlns="http://www.w3.org/2000/svg">
<g clip-path="url(#clip0)">
<path fill-rule="evenodd" clip-rule="evenodd" d="M33.9932 7.09998H0.460449L51.4698 84.4338L48.6298 139.922H79.6506L82.8183 84.1062L82.7479 83.9921L139.508 6.55465H106.084L68.224 60.3234L68.0724 60.076L33.9932 7.09998ZM510.724 39.1041H479.099L473.631 138.891H505.417L509.355 68.3776C546.493 50.2453 545.181 76.6786 545.181 76.6786L542.209 138.891H573.581L577.951 73.4021C577.951 73.4021 581.445 39.5412 552.609 36.701C523.773 33.8614 510.228 50.464 510.228 50.464L510.724 39.1041ZM423.453 -2.38931e-05H455.685L454.309 24.686H422.119L423.453 -2.38931e-05ZM453.512 38.9948L447.929 139.157H415.925L421.344 38.9948H453.512ZM596.635 2.6253H624.285L620.819 73.3098L661.4 33.8614H691.111L648.429 76.0249L680.625 138.283H652.007L629.908 91.1526L619.384 102.554L617.632 138.283H590.176L596.635 2.6253ZM365.929 -2.38931e-05H398.16L390.405 139.157H358.401L365.929 -2.38931e-05ZM323.229 38.012L322.385 50.3136C315.963 41.5536 303.703 32.4202 281.068 35.827C240.435 41.9442 226.453 85.8541 234.973 111.195C243.493 136.536 267.305 145.93 285 144.619C302.147 143.348 310.679 139.001 316.955 129.39L316.239 139.812H339.832L347.479 38.1125L323.229 38.012ZM288.621 59.639C305.027 59.639 317.52 73.2854 316.52 90.114C315.521 106.942 301.405 120.589 285 120.589C268.595 120.589 256.1 106.942 257.1 90.114C258.1 73.2854 272.215 59.639 288.621 59.639V59.639ZM166.008 30.1473C197.795 30.1473 223.572 55.9245 223.572 87.7109C223.572 91.715 223.161 95.624 222.383 99.3984H199.173L199.245 99.1797H133.253C137.747 113.115 150.821 123.199 166.249 123.199C175.131 123.199 183.231 119.857 189.364 114.363H217.037C207.421 132.734 188.177 145.274 166.008 145.274C134.223 145.274 108.445 119.497 108.445 87.7109C108.445 55.9245 134.223 30.1473 166.008 30.1473ZM132.303 81.4849H200.196C196.939 65.7224 182.976 53.8693 166.249 53.8693C149.523 53.8693 135.56 65.7224 132.303 81.4849" fill="#CBCBCB"/>
</g>
<defs>
<clipPath id="clip0">
<rect width="692" height="145.333" fill="white"/>
</clipPath>
</defs>
</svg>
